<svg width="137" height="34" fill="none" xmlns="http://www.w3.org/2000/svg"><path d="M16.7 33.528c-3.255 0-6.086-.63-8.491-1.892-2.376-1.261-4.195-2.992-5.456-5.192C1.49 24.214.86 21.721.86 18.964c0-2.67.704-5.06 2.112-7.172C4.38 9.651 6.302 7.993 8.737 6.82c2.434-1.203 5.148-1.804 8.14-1.804 1.378 0 2.786.132 4.224.396 1.437.235 2.566.528 3.388.88.234.117.381.235.44.352.058.117.102.337.132.66l.352 5.764c0 .117-.074.19-.22.22-.147.03-.25 0-.308-.088-1.027-2.23-2.376-3.96-4.048-5.192-1.672-1.261-3.608-1.892-5.808-1.892-2.846 0-5.06 1.012-6.644 3.036-1.584 1.995-2.376 4.723-2.376 8.184 0 3.021.528 5.69 1.584 8.008 1.056 2.317 2.493 4.107 4.312 5.368 1.848 1.261 3.93 1.892 6.248 1.892 1.056 0 1.862-.147 2.42-.44.557-.323.938-.836 1.144-1.54.234-.733.352-1.79.352-3.168 0-1.437-.132-2.479-.396-3.124s-.748-1.07-1.452-1.276c-.704-.205-1.834-.308-3.388-.308-.176 0-.264-.117-.264-.352a.49.49 0 01.044-.22c.058-.088.117-.132.176-.132 2.434.147 4.458.22 6.072.22 1.525 0 3.109-.044 4.752-.132.117 0 .19.103.22.308.029.205-.015.308-.132.308-.47-.03-.763.088-.88.352-.118.264-.176.865-.176 1.804v2.992c0 1.32.044 2.244.132 2.772.088.528.132.895.132 1.1 0 .176-.03.293-.088.352-.03.059-.132.117-.308.176-3.755.821-7.026 1.232-9.812 1.232zm30.3-3.3c.088 0 .176.044.264.132.088.088.102.161.044.22-.939 1.027-2.01 1.775-3.212 2.244-1.203.47-2.435.704-3.696.704-1.76 0-3.256-.396-4.488-1.188-1.232-.792-2.156-1.833-2.772-3.124a9.48 9.48 0 01-.924-4.136c0-1.584.41-3.11 1.232-4.576.821-1.496 1.98-2.713 3.476-3.652 1.525-.939 3.27-1.408 5.236-1.408 1.32 0 2.346.205 3.08.616.762.41 1.188.997 1.276 1.76.117 1.29-.792 2.493-2.728 3.608-1.936 1.115-4.327 1.921-7.172 2.42.117 2.259.704 4.121 1.76 5.588 1.085 1.437 2.552 2.156 4.4 2.156.704 0 1.422-.103 2.156-.308a6.133 6.133 0 001.98-1.056H47zm-7.13-13.596c-1.027 0-1.834.616-2.42 1.848-.558 1.203-.836 2.757-.836 4.664 3.55-.821 5.265-2.288 5.148-4.4 0-.645-.176-1.159-.528-1.54-.323-.381-.778-.572-1.364-.572zm25.602 1.188c0 .499-.235 1.041-.704 1.628-.47.557-.983.836-1.54.836-.294 0-.558-.044-.792-.132a48.25 48.25 0 00-.792-.44 6.047 6.047 0 00-.616-.308 1.172 1.172 0 00-.528-.132c-.558 0-1.086.719-1.584 2.156-.47 1.408-.851 3.139-1.144 5.192-.264 2.024-.411 3.857-.44 5.5v.352c0 .587-.836.88-2.508.88-1.027 0-1.57-.117-1.628-.352v-1.012c.058-.821.088-1.57.088-2.244l.044-9.812c0-1.437-.382-2.156-1.144-2.156-.675 0-1.467.587-2.376 1.76-.06.059-.118.088-.176.088a.422.422 0 01-.308-.132c-.088-.117-.088-.235 0-.352.88-1.232 1.73-2.127 2.552-2.684.82-.557 1.686-.836 2.596-.836 1.026 0 1.76.323 2.2.968.44.616.689 1.555.748 2.816l-.044 4.708c.38-2.61.953-4.679 1.716-6.204.762-1.555 1.76-2.332 2.992-2.332.733 0 1.48.235 2.244.704.762.44 1.144.953 1.144 1.54zm9.236 15.576c-1.056 0-1.834-.352-2.333-1.056-.469-.733-.674-1.819-.616-3.256l.176-9.152c.03-1.437-.352-2.156-1.144-2.156-.645 0-1.451.587-2.42 1.76-.029.03-.073.044-.132.044-.087 0-.175-.044-.263-.132-.118-.117-.147-.22-.089-.308.88-1.232 1.731-2.127 2.552-2.684.851-.557 1.716-.836 2.597-.836 1.994 0 2.991 1.261 2.991 3.784l-.175 9.68c-.06 1.379.278 2.068 1.012 2.068.293 0 .586-.117.88-.352.322-.235.762-.63 1.32-1.188.058-.059.117-.088.175-.088.118 0 .206.059.264.176.088.088.118.176.088.264-.88 1.203-1.686 2.083-2.42 2.64a4.117 4.117 0 01-2.463.792zm-1.32-21.252c0 .059-.06.088-.176.088a.831.831 0 01-.264-.044c-.06-.059-.074-.103-.044-.132l1.451-10.56c.06-.117.543-.25 1.453-.396.909-.176 1.672-.264 2.288-.264.41 0 .6.059.572.176l-5.28 11.132zm17.193 21.428c-1.848 0-3.402-.455-4.664-1.364a8.088 8.088 0 01-2.728-3.52 10.595 10.595 0 01-.748-4.576c.03-1.555.484-2.992 1.364-4.312a9.362 9.362 0 013.432-3.168c1.408-.792 2.846-1.188 4.312-1.188 1.261 0 2.406.25 3.432.748 1.027.499 1.599 1.232 1.716 2.2.059.616-.102 1.1-.484 1.452-.352.352-.91.528-1.672.528-.792 0-1.379-.176-1.76-.528-.381-.352-.718-.836-1.012-1.452-.293-.557-.587-.983-.88-1.276-.293-.293-.704-.44-1.232-.44-.939 0-1.686.499-2.244 1.496-.528.997-.792 2.332-.792 4.004 0 2.699.543 4.913 1.628 6.644 1.115 1.73 2.728 2.596 4.84 2.596 1.525 0 2.728-.352 3.608-1.056h.044c.088 0 .176.059.264.176.118.088.147.176.088.264-.91 1.027-1.906 1.745-2.992 2.156-1.085.41-2.258.616-3.52.616zm30.143-4.004c.03-.03.074-.044.132-.044.118 0 .206.059.264.176.088.088.118.176.088.264-.909 1.203-1.73 2.083-2.464 2.64-.704.528-1.51.792-2.42.792-1.026 0-1.789-.352-2.288-1.056-.469-.733-.689-1.819-.66-3.256l.044-6.996c0-2.757-.674-4.136-2.024-4.136-.938 0-1.789.543-2.552 1.628-.762 1.056-1.378 2.64-1.848 4.752-.44 2.083-.674 4.576-.704 7.48v.66c0 .264-.22.47-.66.616-.44.176-1.085.264-1.936.264-1.026 0-1.569-.117-1.628-.352v-1.012c.059-.821.088-1.57.088-2.244l.176-22.66c.03-.939-.073-1.628-.308-2.068-.205-.44-.557-.66-1.056-.66-.469 0-1.114.205-1.936.616h-.044c-.117 0-.205-.073-.264-.22-.088-.147-.073-.25.044-.308L105.72 1.1h.088c.118 0 .235.044.352.132.118.088.176.161.176.22l-.044 21.78c.616-2.493 1.526-4.415 2.728-5.764 1.203-1.35 2.626-2.024 4.268-2.024 2.846 0 4.268 1.936 4.268 5.808l-.088 7.832c-.058 1.379.279 2.068 1.012 2.068.558 0 1.306-.528 2.244-1.584zm15.896-.132c.088 0 .176.059.264.176.088.088.102.176.044.264-1.262 1.29-2.406 2.23-3.432 2.816-1.027.557-2.098.836-3.212.836-3.168 0-4.723-1.555-4.664-4.664l.044-9.328c.029-.939-.103-1.555-.396-1.848-.294-.323-.895-.484-1.804-.484-.118 0-.191-.117-.22-.352 0-.235.044-.352.132-.352 2.64 0 4.444-1.29 5.412-3.872.058-.088.176-.132.352-.132.146 0 .278.03.396.088.146.059.22.117.22.176v3.608c1.202-.059 3.109-.176 5.72-.352a.42.42 0 01.352.176.585.585 0 01.132.352c-.03.323-.191.69-.484 1.1-.264.381-.558.557-.88.528-1.848-.293-3.462-.47-4.84-.528l-.044 10.472c0 1.027.234 1.79.704 2.288.498.47 1.261.704 2.288.704 1.29 0 2.581-.557 3.872-1.672h.044z" fill="#fff"/></svg>